Coordinates
version=1
nRows=5
nColumns=63
inDegrees=yes

Units are S.I. units (second, meters, Newtons, ...)
If the header above contains a line with 'inDegrees', this indicates whether rotational values are in degrees (yes) or radians (no).

endheader
time	pelvis_tilt	pelvis_list	pelvis_rotation	pelvis_tx	pelvis_ty	pelvis_tz	hip_flexion_r	hip_adduction_r	hip_rotation_r	knee_angle_r	knee_angle_r_beta	ankle_angle_r	subtalar_angle_r	mtp_angle_r	hip_flexion_l	hip_adduction_l	hip_rotation_l	knee_angle_l	knee_angle_l_beta	ankle_angle_l	subtalar_angle_l	mtp_angle_l	L5_S1_Flex_Ext	L5_S1_Lat_Bending	L5_S1_axial_rotation	L4_L5_Flex_Ext	L4_L5_Lat_Bending	L4_L5_axial_rotation	L3_L4_Flex_Ext	L3_L4_Lat_Bending	L3_L4_axial_rotation	L2_L3_Flex_Ext	L2_L3_Lat_Bending	L2_L3_axial_rotation	L1_L2_Flex_Ext	L1_L2_Lat_Bending	L1_L2_axial_rotation	L1_T12_Flex_Ext	L1_T12_Lat_Bending	L1_T12_axial_rotation	Abs_r3	Abs_r2	Abs_r1	Abs_t1	Abs_t2	neck_flexion	neck_bending	neck_rotation	arm_flex_r	arm_add_r	arm_rot_r	elbow_flex_r	pro_sup_r	wrist_flex_r	wrist_dev_r	arm_flex_l	arm_add_l	arm_rot_l	elbow_flex_l	pro_sup_l	wrist_flex_l	wrist_dev_l
      4.50000000	      3.33466848	     -9.31168954	    110.05982104	      0.11996344	      1.00140765	      0.41851065	      7.61680729	     -1.21637131	    -24.58686571	     18.52243488	      0.32327747	     29.34090471	     16.55735619	      0.00000000	     11.51764819	     -5.01910058	     12.02444675	     16.80496245	      0.29330193	     29.91930762	     -1.33488423	      0.00000000	     -0.19294872	     -0.13714938	      3.42845656	     -0.35832507	     -0.18240868	      3.64273510	     -0.31699545	     -0.33346501	      3.64273510	     -0.22052109	     -0.33346501	      2.99989949	     -0.17917218	     -0.27967502	      2.78562096	     -0.11025090	     -0.21244440	      2.57134242	     -1.37821341	     -1.55146126	     19.06804686	      0.00000000	      0.00000000	      1.15909949	      2.42872299	    -14.52781871	     55.07229709	    -12.97535509	     83.42176119	     51.98489911	     80.02858826	      5.27601906	     18.02239083	     39.92214132	    -22.17333478	     36.50992715	     52.83405401	     88.64596105	      0.62396138	     27.13187569
      4.51666667	      2.92021149	     -9.05692773	    110.40193544	      0.12298387	      1.00248021	      0.41569687	      6.70046445	     -1.04782766	    -24.49946168	     17.65332652	      0.30810867	     28.82927858	     16.35587826	      0.00000000	     10.27026363	     -5.03115596	     12.21795501	     15.45061402	      0.26966409	     28.83363819	     -1.08035812	      0.00000000	     -0.14294881	     -0.11204532	      3.78950807	     -0.26547024	     -0.14902027	      4.02635233	     -0.23485061	     -0.27242698	      4.02635233	     -0.16337620	     -0.27242698	      3.31581956	     -0.13274227	     -0.22848281	      3.07897531	     -0.08168095	     -0.17355820	      2.84213105	     -1.02106909	     -1.26747903	     21.07610704	      0.00000000	      0.00000000	      0.41183335	      1.71636891	    -13.82988077	     57.85809048	    -13.89745906	     82.55498848	     53.92886347	     83.44067550	      3.36007952	     16.40045877	     42.94691083	    -23.32579895	     38.77621596	     54.68023915	     88.79704294	      2.03168272	     27.48129845
      4.53333333	      2.52698185	     -9.14425666	    110.77898942	      0.12624838	      1.00323910	      0.41323437	      6.23349242	     -1.00775274	    -24.35793503	     16.95490210	      0.29591887	     28.52335897	     16.13617250	      0.00000000	      9.51421850	     -4.90997017	     12.60372649	     14.32980719	      0.25010232	     27.74424847	     -1.02554315	      0.00000000	     -0.06857263	     -0.09778233	      4.08783399	     -0.12734623	     -0.13005049	      4.34332362	     -0.11265797	     -0.23774795	      4.34332362	     -0.07837166	     -0.23774795	      3.57685474	     -0.06367654	     -0.19939772	      3.32136512	     -0.03918240	     -0.15146482	      3.06587549	     -0.48980744	     -1.10613323	     22.73530631	      0.00000000	      0.00000000	     -0.08836386	      1.24836263	    -12.42175282	     60.05259951	    -14.61573707	     79.01847582	     54.96880521	     86.75942821	      0.97857230	     13.53726927	     45.73705729	    -24.99009036	     40.48888906	     57.33889331	     89.03702684	      3.39289329	     26.34330870
      4.55000000	      2.20146740	     -9.32463886	    111.27595276	      0.12946813	      1.00399370	      0.41136727	      5.91250596	     -0.97300558	    -24.40711717	     16.28542640	      0.28423431	     28.34951249	     16.04193521	      0.00000000	      9.12038478	     -4.76741896	     13.04157774	     13.58054779	      0.23702527	     26.81093986	     -1.10390124	      0.00000000	     -0.01329535	     -0.06647911	      4.30327170	     -0.02469080	     -0.08841721	      4.57222619	     -0.02184294	     -0.16163730	      4.57222619	     -0.01519526	     -0.16163730	      3.76536274	     -0.01234607	     -0.13556419	      3.49640826	     -0.00759697	     -0.10297614	      3.22745378	     -0.09496738	     -0.75202495	     23.93350624	      0.00000000	      0.00000000	     -0.58580890	      0.82148694	     -9.93568012	     62.22143857	    -15.08775126	     74.14488213	     55.23847415	     87.92097221	     -1.51721606	      9.63265381	     47.75246228	    -26.84846088	     40.29077306	     60.88659997	     89.22454114	      4.36034944	     23.95384265
      4.56666667	      2.09595234	     -9.52633365	    112.05351530	      0.13210084	      1.00483458	      0.41057925	      5.76081351	     -0.83792367	    -24.83674527	     15.72235876	      0.27440693	     28.29685058	     16.06115093	      0.00000000	      9.19723103	     -4.66488487	     14.02492812	     13.35094526	      0.23301795	     26.07953971	     -1.80560819	      0.00000000	      0.01536634	      0.00925860	      4.37951215	      0.02853682	      0.01231393	      4.65323166	      0.02524535	      0.02251135	      4.65323166	      0.01756219	      0.02251135	      3.83207313	      0.01426918	      0.01888013	      3.55835363	      0.00878032	      0.01434157	      3.28463412	      0.10976020	      0.10473510	     24.35753275	      0.00000000	      0.00000000	     -1.10398698	      0.42229167	     -6.07991917	     64.81140652	    -15.09433808	     69.41277952	     54.86440548	     88.28086861	     -4.84799166	      3.65180961	     47.48569478	    -28.45164368	     36.20066034	     65.39031247	     89.31529941	      2.21891074	     17.87639824
